<?xml version="1.0" encoding="utf-8"?>
<!-- Generator: Adobe Illustrator 16.0.0, SVG Export Plug-In . SVG Version: 6.00 Build 0)  -->
<!DOCTYPE svg PUBLIC "-//W3C//DTD SVG 1.1//EN" "http://www.w3.org/Graphics/SVG/1.1/DTD/svg11.dtd">
<svg version="1.1" id="Layer_1" xmlns="http://www.w3.org/2000/svg" xmlns:xlink="http://www.w3.org/1999/xlink" x="0px" y="0px"
	 width="253px" height="279.004px" viewBox="0 0 253 279.004" enable-background="new 0 0 253 279.004" xml:space="preserve">
<g>
	<g>
		<path fill="none" stroke="#3A4651" stroke-width="15" stroke-miterlimit="10" d="M125.556,271.502
			c-1.696,0-3.392-0.432-4.917-1.292L12.583,209.205c-3.141-1.773-5.084-5.101-5.084-8.708V77.5c0-3.632,1.97-6.979,5.146-8.743
			L120.702,8.757c1.51-0.838,3.183-1.257,4.854-1.257c1.694,0,3.388,0.43,4.912,1.29L240.408,70.79
			c3.144,1.773,5.088,5.102,5.088,8.71v122.996c0,3.684-2.025,7.069-5.271,8.812l-109.939,59.006
			C128.808,271.107,127.181,271.502,125.556,271.502z"/>
	</g>
	<g>
		<path fill="#3A4651" d="M126.646,242.497c-1.696,0-3.392-0.431-4.916-1.292l-78.384-44.25c-4.81-2.715-6.507-8.814-3.792-13.624
			s8.815-6.506,13.624-3.792l73.59,41.544l59.022-31.674L43.288,107.701c-3.13-1.795-5.05-5.136-5.026-8.744
			c0.025-3.608,1.991-6.923,5.146-8.674l78.384-43.526c3.039-1.688,6.736-1.675,9.767,0.032l79.754,44.977
			c4.811,2.713,6.511,8.812,3.798,13.623c-2.713,4.811-8.813,6.51-13.622,3.798l-74.88-42.228L68.609,99.165l142.764,81.858
			c3.152,1.807,5.076,5.182,5.025,8.815c-0.051,3.633-2.068,6.953-5.271,8.671l-79.754,42.799
			C129.897,242.101,128.271,242.497,126.646,242.497z"/>
		<path fill="none" stroke="#3A4651" stroke-width="4" stroke-miterlimit="10" d="M126.646,242.497
			c-1.696,0-3.392-0.431-4.916-1.292l-78.384-44.25c-4.81-2.715-6.507-8.814-3.792-13.624s8.815-6.506,13.624-3.792l73.59,41.544
			l59.022-31.674L43.288,107.701c-3.13-1.795-5.05-5.136-5.026-8.744c0.025-3.608,1.991-6.923,5.146-8.674l78.384-43.526
			c3.039-1.688,6.736-1.675,9.767,0.032l79.754,44.977c4.811,2.713,6.511,8.812,3.798,13.623c-2.713,4.811-8.813,6.51-13.622,3.798
			l-74.88-42.228L68.609,99.165l142.764,81.858c3.152,1.807,5.076,5.182,5.025,8.815c-0.051,3.633-2.068,6.953-5.271,8.671
			l-79.754,42.799C129.897,242.101,128.271,242.497,126.646,242.497z"/>
	</g>
	<g>
		<path fill="#FFFFFF" d="M206.4,178.495"/>
		<path fill="none" stroke="#3A4651" stroke-width="9" stroke-miterlimit="10" d="M206.4,178.495"/>
	</g>
	<g>
		<path fill="#FFFFFF" d="M48.262,87.5"/>
		<path fill="none" stroke="#3A4651" stroke-width="9" stroke-miterlimit="10" d="M48.262,87.5"/>
	</g>
	<polygon fill="#3A4651" stroke="#3A4651" stroke-width="4" stroke-miterlimit="10" points="183.183,104.907 204.865,117.661 
		218.205,106.936 218.283,90.264 198.609,78.69 185.863,79.471 178.343,91 	"/>
	<polygon fill="#3A4651" stroke="#3A4651" stroke-width="4" stroke-miterlimit="10" points="64.182,178.696 42.295,166.292 
		29.13,177.235 29.321,193.907 49.182,205.163 61.912,204.174 69.246,192.524 	"/>
	<polygon fill="#3A4651" stroke="#3A4651" stroke-width="4" stroke-miterlimit="10" points="37.962,90.917 37.962,108.754 
		55.818,119.311 73.283,108.993 73.35,89.358 54.727,78.903 	"/>
	<polygon fill="#3A4651" stroke="#3A4651" stroke-width="4" stroke-miterlimit="10" points="180.621,179.305 180.621,197.145 
		198.476,207.704 215.939,197.383 216.005,177.747 197.384,167.292 	"/>
	<polygon fill="#3A4651" stroke="#3A4651" stroke-width="4" stroke-miterlimit="10" points="108.804,50.292 108.804,68.131 
		126.662,78.69 144.126,68.37 144.193,48.734 125.57,38.279 	"/>
	<polygon fill="#3A4651" stroke="#3A4651" stroke-width="4" stroke-miterlimit="10" points="108.804,219.719 108.804,237.557 
		126.662,248.118 144.126,237.795 144.193,218.161 125.57,207.704 	"/>
	<polygon fill="#3A4651" stroke="#3A4651" stroke-miterlimit="10" points="107.804,132.922 107.804,150.756 125.662,161.317 
		143.125,150.995 143.193,131.364 124.57,120.909 	"/>
</g>
</svg>
