<?xml version="1.0" encoding="utf-8"?>
<!-- Generator: Adobe Illustrator 16.0.0, SVG Export Plug-In . SVG Version: 6.00 Build 0)  -->
<!DOCTYPE svg PUBLIC "-//W3C//DTD SVG 1.1//EN" "http://www.w3.org/Graphics/SVG/1.1/DTD/svg11.dtd">
<svg version="1.1" id="Layer_1" xmlns="http://www.w3.org/2000/svg" xmlns:xlink="http://www.w3.org/1999/xlink" x="0px" y="0px"
	 width="253px" height="279.004px" viewBox="0 0 253 279.004" enable-background="new 0 0 253 279.004" xml:space="preserve">
<g>
	<g>
		<path fill="none" stroke="#FFFFFF" stroke-width="15" stroke-miterlimit="10" d="M125.556,271.5c-1.697,0-3.393-0.432-4.917-1.291
			L12.583,209.204c-3.141-1.773-5.084-5.1-5.084-8.707V77.5c0-3.633,1.971-6.98,5.146-8.744L120.7,8.757
			c1.511-0.839,3.185-1.258,4.856-1.258c1.693,0,3.387,0.431,4.912,1.29l109.939,62c3.145,1.771,5.088,5.102,5.088,8.711v122.996
			c0,3.684-2.025,7.07-5.271,8.813l-109.939,59.004C128.806,271.106,127.181,271.5,125.556,271.5z"/>
	</g>
	<g>
		<path fill="#FFFFFF" d="M126.646,242.499c-1.695,0-3.391-0.432-4.917-1.293l-78.383-44.252c-4.81-2.715-6.509-8.814-3.793-13.623
			c2.715-4.813,8.816-6.51,13.625-3.795l73.591,41.547l59.023-31.674L43.287,107.702c-3.131-1.795-5.05-5.137-5.026-8.747
			c0.025-3.606,1.991-6.921,5.146-8.673l78.385-43.524c3.04-1.688,6.739-1.676,9.767,0.032l79.754,44.977
			c4.811,2.713,6.51,8.812,3.797,13.623c-2.711,4.811-8.813,6.51-13.619,3.799l-74.881-42.229l-58,32.205l142.765,81.858
			c3.15,1.805,5.074,5.18,5.023,8.816c-0.051,3.633-2.068,6.951-5.27,8.67l-79.754,42.801
			C129.898,242.102,128.271,242.499,126.646,242.499z"/>
		<path fill="none" stroke="#FFFFFF" stroke-width="4" stroke-miterlimit="10" d="M126.646,242.499
			c-1.695,0-3.391-0.432-4.917-1.293l-78.383-44.252c-4.81-2.715-6.509-8.814-3.793-13.623c2.715-4.813,8.816-6.51,13.625-3.795
			l73.591,41.547l59.023-31.674L43.287,107.702c-3.131-1.795-5.05-5.137-5.026-8.747c0.025-3.606,1.991-6.921,5.146-8.673
			l78.385-43.524c3.04-1.688,6.739-1.676,9.767,0.032l79.754,44.977c4.811,2.713,6.51,8.812,3.797,13.623
			c-2.711,4.811-8.813,6.51-13.619,3.799l-74.881-42.229l-58,32.205l142.765,81.858c3.15,1.805,5.074,5.18,5.023,8.816
			c-0.051,3.633-2.068,6.951-5.27,8.67l-79.754,42.801C129.898,242.102,128.271,242.499,126.646,242.499z"/>
	</g>
	<g>
		<path fill="#FFFFFF" d="M206.4,178.495"/>
		<path fill="none" stroke="#FFFFFF" stroke-width="9" stroke-miterlimit="10" d="M206.4,178.495"/>
	</g>
	<g>
		<path fill="#FFFFFF" d="M48.262,87.5"/>
		<path fill="none" stroke="#FFFFFF" stroke-width="9" stroke-miterlimit="10" d="M48.262,87.5"/>
	</g>
	<polygon fill="#FFFFFF" stroke="#FFFFFF" stroke-width="4" stroke-miterlimit="10" points="183.183,104.907 204.865,117.661 
		218.205,106.936 218.283,90.264 198.609,78.69 185.863,79.471 178.343,91 	"/>
	<polygon fill="#FFFFFF" stroke="#FFFFFF" stroke-width="4" stroke-miterlimit="10" points="64.182,178.696 42.295,166.292 
		29.13,177.235 29.321,193.907 49.182,205.163 61.912,204.174 69.246,192.524 	"/>
	<polygon fill="#FFFFFF" stroke="#FFFFFF" stroke-width="4" stroke-miterlimit="10" points="37.962,90.917 37.962,108.754 
		55.818,119.311 73.283,108.993 73.35,89.358 54.727,78.903 	"/>
	<polygon fill="#FFFFFF" stroke="#FFFFFF" stroke-width="4" stroke-miterlimit="10" points="180.621,179.305 180.621,197.145 
		198.476,207.704 215.939,197.383 216.005,177.747 197.384,167.292 	"/>
	<polygon fill="#FFFFFF" stroke="#FFFFFF" stroke-width="4" stroke-miterlimit="10" points="108.804,50.292 108.804,68.131 
		126.662,78.69 144.126,68.37 144.193,48.734 125.57,38.279 	"/>
	<polygon fill="#FFFFFF" stroke="#FFFFFF" stroke-width="4" stroke-miterlimit="10" points="108.804,219.719 108.804,237.557 
		126.662,248.118 144.126,237.795 144.193,218.161 125.57,207.704 	"/>
	<polygon fill="#FFFFFF" stroke="#FFFFFF" stroke-width="4" stroke-miterlimit="10" points="107.804,132.922 107.804,150.756 
		125.662,161.317 143.125,150.995 143.193,131.364 124.57,120.909 	"/>
</g>
</svg>
